<svg width="40" height="40" viewBox="0 0 40 40" fill="none" xmlns="http://www.w3.org/2000/svg">
<g clip-path="url(#clip0_52_2425)">
<g clip-path="url(#clip1_52_2425)">
<g clip-path="url(#clip2_52_2425)">
<path d="M0.00341797 0.189941C13.2012 0.189941 26.3989 0.189941 39.9966 0.189941C39.9966 13.2645 39.9966 26.3391 39.9966 39.8099C26.7989 39.8099 13.6011 39.8099 0.00341797 39.8099C0.00341797 26.7353 0.00341797 13.6607 0.00341797 0.189941Z" fill="#CFDCE0"/>
<path d="M20.0365 5.63234C20.1203 5.70174 20.2006 5.77533 20.2797 5.85003C20.3375 5.79487 20.3952 5.73971 20.4547 5.68287C21.1685 5.07161 22.0559 4.98024 22.9542 5.04146C23.7296 5.13581 24.6107 5.56855 25.1312 6.16102C25.1731 6.2398 25.2146 6.31884 25.2556 6.39815C25.3232 6.51464 25.3232 6.51464 25.4422 6.5964C25.6449 6.63806 25.8401 6.66028 26.0458 6.67758C26.907 6.75419 27.5691 7.21646 28.1215 7.86174C28.5438 8.44536 28.8311 9.10367 28.8008 9.83069C28.8839 9.83947 28.8839 9.83947 28.9687 9.84843C29.53 9.96998 30.0226 10.5691 30.3558 11.0124C30.83 11.8167 31.0518 12.6483 30.8378 13.5703C30.7761 13.8025 30.7017 14.002 30.5851 14.2117C30.4575 14.4172 30.4575 14.4172 30.5241 14.5798C30.6418 14.8205 30.7643 15.0584 30.8883 15.2958C31.0865 15.7277 31.1244 16.1114 31.1216 16.5792C31.1213 16.6397 31.121 16.7003 31.1207 16.7627C31.0964 18.2728 30.5364 19.7148 29.4712 20.7931C29.0141 21.2187 28.5124 21.4994 27.9378 21.7338C27.8979 21.7502 27.8579 21.7665 27.8167 21.7834C27.6096 21.8644 27.4721 21.8971 27.2459 21.8971C27.2433 21.9638 27.2408 22.0305 27.2381 22.0992C27.1523 22.7554 26.7351 23.3335 26.2507 23.763C25.3244 24.4339 24.3662 24.7105 23.2341 24.6999C22.9416 24.6979 22.9416 24.6979 22.6433 24.696C22.6433 25.2296 22.6433 25.7633 22.6433 26.3131C23.1272 26.3303 23.1272 26.3303 23.566 26.1681C23.637 26.0752 23.7003 25.9765 23.7628 25.8777C24.0468 25.6909 24.3689 25.7226 24.6958 25.7533C25.0034 25.8737 25.2329 26.1433 25.38 26.4375C25.4146 26.8078 25.4136 27.12 25.1934 27.4327C24.9235 27.6982 24.7254 27.8766 24.3381 27.8836C24.0051 27.8802 23.7881 27.8002 23.5257 27.5921C23.4518 27.4949 23.4518 27.4949 23.3896 27.2461C23.1228 27.2255 22.856 27.205 22.5811 27.1839C22.5824 27.2937 22.5837 27.4036 22.585 27.5168C22.589 27.88 22.5919 28.2432 22.5939 28.6064C22.5952 28.8266 22.597 29.0467 22.5998 29.2669C22.603 29.5201 22.6043 29.7733 22.6053 30.0265C22.6066 30.1055 22.6079 30.1845 22.6092 30.2659C22.6093 30.3393 22.6093 30.4128 22.6093 30.4884C22.6098 30.5531 22.6104 30.6177 22.611 30.6843C22.573 30.899 22.504 30.9716 22.3323 31.1023C22.1146 31.1373 22.1146 31.1373 21.8969 31.1023C21.7453 30.9702 21.6604 30.862 21.6254 30.6608C21.6159 30.4954 21.6149 30.3316 21.6165 30.1659C21.6161 30.1023 21.6157 30.0388 21.6153 29.9734C21.6143 29.7602 21.6151 29.547 21.6159 29.3338C21.6156 29.1811 21.6151 29.0283 21.6146 28.8756C21.6136 28.5035 21.6137 28.1314 21.6144 27.7593C21.615 27.4567 21.6151 27.1541 21.6148 26.8515C21.6148 26.8084 21.6147 26.7653 21.6147 26.7209C21.6146 26.6334 21.6145 26.5459 21.6144 26.4583C21.6137 25.6372 21.6145 24.8161 21.6159 23.9951C21.617 23.2914 21.6168 22.5879 21.6157 21.8842C21.6143 21.0667 21.6138 20.2491 21.6146 19.4315C21.6146 19.3441 21.6147 19.2568 21.6148 19.1695C21.6149 19.105 21.6149 19.105 21.6149 19.0393C21.6151 18.7374 21.6148 18.4356 21.6142 18.1337C21.6134 17.7267 21.614 17.3196 21.6154 16.9125C21.6157 16.7633 21.6156 16.6142 21.6151 16.465C21.6144 16.2609 21.6153 16.0567 21.6165 15.8526C21.6159 15.794 21.6154 15.7355 21.6148 15.6752C21.6212 15.1277 21.7488 14.6292 22.1301 14.2234C22.5764 13.8179 22.9398 13.6159 23.5461 13.6187C23.6512 13.6189 23.6512 13.6189 23.7585 13.6192C23.8472 13.6197 23.9358 13.6203 24.0272 13.6209C24.3094 13.6222 24.5916 13.6234 24.8824 13.6248C24.8824 12.6806 24.8824 11.7364 24.8824 10.7637C24.8003 10.7226 24.7182 10.6816 24.6336 10.6393C24.5434 10.527 24.5434 10.527 24.4664 10.3982C24.4405 10.3561 24.4146 10.3139 24.3879 10.2704C24.2292 9.95758 24.195 9.59835 24.3029 9.26338C24.4633 8.91139 24.6741 8.68466 25.0291 8.51773C25.3966 8.39379 25.8004 8.40394 26.1535 8.5673C26.4411 8.7337 26.6213 8.96618 26.7483 9.27091C26.8051 9.67917 26.8076 10.0438 26.5812 10.3982C26.432 10.5899 26.2933 10.733 26.0641 10.8259C26.0026 10.8259 25.941 10.8259 25.8775 10.8259C25.8782 10.8919 25.8782 10.8919 25.8788 10.9592C25.8825 11.3738 25.8854 11.7883 25.8872 12.2029C25.8882 12.4161 25.8895 12.6292 25.8916 12.8423C25.894 13.0874 25.8949 13.3324 25.8958 13.5774C25.8967 13.654 25.8977 13.7305 25.8987 13.8095C25.8987 13.8804 25.8987 13.9514 25.8987 14.0245C25.8993 14.1184 25.8993 14.1184 25.9 14.2141C25.8775 14.3711 25.8775 14.3711 25.7985 14.4848C25.668 14.5733 25.5981 14.5804 25.4414 14.5789C25.3916 14.5789 25.3418 14.5789 25.2905 14.5789C25.237 14.5779 25.1836 14.5769 25.1285 14.5759C25.0461 14.5755 25.0461 14.5755 24.962 14.5751C24.7864 14.5741 24.6109 14.5718 24.4353 14.5694C24.3163 14.5684 24.1973 14.5676 24.0783 14.5668C23.7865 14.5648 23.4948 14.5616 23.203 14.5577C23.1857 14.5963 23.1684 14.6349 23.1506 14.6746C23.0786 14.8065 23.0786 14.8065 22.9231 14.927C22.7405 15.0777 22.7085 15.14 22.6433 15.3663C22.6229 15.5804 22.6201 15.794 22.6175 16.0089C22.6163 16.0706 22.6151 16.1323 22.6138 16.1958C22.6101 16.3923 22.6072 16.5887 22.6044 16.7852C22.602 16.9186 22.5996 17.052 22.5971 17.1855C22.5911 17.512 22.5859 17.8386 22.5811 18.1652C22.8068 18.1652 23.0326 18.1652 23.2652 18.1652C23.3063 18.0831 23.3473 18.001 23.3896 17.9164C23.7012 17.6438 23.8816 17.5825 24.2893 17.5884C24.6093 17.6229 24.7993 17.8133 24.999 18.0486C25.1816 18.3225 25.1791 18.5933 25.1312 18.9116C25.0052 19.2629 24.7986 19.5132 24.4625 19.6813C24.1439 19.7425 23.8517 19.7545 23.5701 19.5746C23.4184 19.4471 23.2922 19.3388 23.203 19.1604C23.0183 19.1398 22.8336 19.1193 22.6433 19.0982C22.6227 20.5965 22.6022 22.0949 22.5811 23.6386C24.384 23.5835 24.384 23.5835 25.8387 22.6901C26.0541 22.4164 26.182 22.0929 26.3129 21.7727C25.7928 21.7393 25.7928 21.7393 25.3399 21.9272C25.2841 22.0383 25.2385 22.1544 25.1934 22.2703C24.8704 22.5696 24.6084 22.6032 24.1812 22.5987C23.8695 22.5666 23.7071 22.407 23.5024 22.1847C23.2852 21.8702 23.1599 21.6176 23.1729 21.2321C23.2528 20.8513 23.5755 20.5527 23.8872 20.3421C24.2488 20.2216 24.6287 20.2164 24.9718 20.3849C25.1295 20.5272 25.26 20.6643 25.38 20.8397C25.38 20.8808 25.38 20.9218 25.38 20.9641C26.7893 20.9077 28.0023 20.807 29.0341 19.7435C29.4562 19.2282 29.7278 18.5474 29.9204 17.9164C29.9344 17.8705 29.9485 17.8247 29.9629 17.7774C30.0518 17.4219 30.0593 17.0643 30.0642 16.6997C30.0653 16.6504 30.0664 16.6012 30.0676 16.5505C30.0669 16.0543 29.931 15.6355 29.6677 15.2147C29.6205 15.1378 29.6205 15.1378 29.5722 15.0594C29.4868 14.925 29.4868 14.925 29.3606 14.8065C29.2679 14.3081 29.4555 13.9366 29.6716 13.5004C29.8562 13.0169 29.8762 12.4848 29.6988 11.996C29.4142 11.3759 28.9896 10.9329 28.3504 10.6857C28.1697 10.6247 27.9889 10.5676 27.8057 10.5149C27.8048 10.4472 27.8039 10.3795 27.803 10.3098C27.7826 9.54503 27.6657 8.89138 27.1137 8.31802C26.3974 7.67634 25.6074 7.69069 24.6958 7.71596C24.6777 7.67612 24.6595 7.63627 24.6409 7.59521C24.317 6.91191 23.942 6.52013 23.2375 6.22079C22.6592 6.02182 22.0891 6.02089 21.531 6.27764C21.1717 6.46854 20.9309 6.71649 20.7773 7.09399C20.7318 7.41396 20.7362 7.73184 20.7392 8.05415C20.739 8.15241 20.7387 8.25067 20.7382 8.34892C20.7373 8.61823 20.7383 8.88749 20.7396 9.1568C20.7407 9.44748 20.74 9.73815 20.7395 10.0288C20.7389 10.5323 20.7393 11.0357 20.7405 11.5392C20.7422 12.2673 20.742 12.9955 20.7412 13.7237C20.74 14.9055 20.74 16.0872 20.7409 17.269C20.741 17.3397 20.7411 17.4105 20.7411 17.4833C20.7413 17.7698 20.7416 18.0564 20.7418 18.3429C20.7425 19.1322 20.743 19.9216 20.7434 20.7109C20.7434 20.7816 20.7435 20.8523 20.7435 20.9252C20.7441 22.1029 20.7437 23.2806 20.7426 24.4583C20.742 25.1849 20.7423 25.9115 20.7438 26.6381C20.7448 27.1356 20.7449 27.633 20.7444 28.1305C20.7441 28.4177 20.7442 28.7049 20.7454 28.9922C20.7465 29.2549 20.7465 29.5176 20.7455 29.7803C20.7454 29.8756 20.7457 29.9708 20.7464 30.0661C20.7474 30.1952 20.7468 30.3242 20.7458 30.4533C20.7459 30.5251 20.746 30.5969 20.7461 30.6709C20.7083 30.8939 20.6446 30.9671 20.4663 31.1023C20.2836 31.1373 20.2836 31.1373 20.0931 31.1023C19.8964 30.9448 19.7943 30.8512 19.7436 30.601C19.7437 30.5292 19.7438 30.4574 19.744 30.3834C19.7436 30.3431 19.7433 30.3028 19.7429 30.2612C19.7421 30.1259 19.7435 29.9906 19.7449 29.8553C19.7448 29.7574 19.7445 29.6595 19.7441 29.5615C19.7435 29.2923 19.7447 29.0231 19.7463 28.7538C19.7476 28.4635 19.7472 28.1732 19.7469 27.8829C19.7467 27.3798 19.7476 26.8766 19.7492 26.3735C19.7514 25.6455 19.7516 24.9175 19.7512 24.1895C19.7506 23.0077 19.7511 21.8259 19.7526 20.644C19.7527 20.5733 19.7528 20.5025 19.7529 20.4297C19.7538 19.7121 19.7548 18.9946 19.7559 18.277C19.7565 17.9192 19.7571 17.5613 19.7576 17.2034C19.7578 17.0975 19.7578 17.0975 19.7579 16.9895C19.7597 15.8123 19.76 14.6352 19.7592 13.4581C19.7587 12.7319 19.7596 12.0057 19.7621 11.2795C19.7637 10.7819 19.7641 10.2844 19.7633 9.78675C19.7629 9.4996 19.7632 9.21247 19.7651 8.92532C19.7668 8.66238 19.7668 8.3995 19.7654 8.13656C19.7652 8.0415 19.7656 7.94644 19.7668 7.85139C19.7721 7.37814 19.7759 6.99341 19.4456 6.62336C18.9816 6.20465 18.444 6.04145 17.831 6.05992C17.4836 6.08383 17.2126 6.16027 16.9211 6.34761C16.8786 6.37327 16.8361 6.39893 16.7923 6.42536C16.3189 6.74214 16.0454 7.21209 15.8015 7.71596C15.7621 7.71401 15.7226 7.71206 15.682 7.71004C14.4911 7.64992 14.4911 7.64992 13.4807 8.21452C12.9825 8.72378 12.764 9.33535 12.7188 10.0328C12.7136 10.1114 12.7084 10.19 12.703 10.2709C12.6974 10.3609 12.6974 10.3609 12.6916 10.4527C12.636 10.4731 12.5803 10.4936 12.523 10.5146C11.7474 10.8197 11.1944 11.2366 10.8257 12.0076C10.5565 12.6928 10.7288 13.2817 11.0123 13.9357C11.063 14.018 11.063 14.018 11.1148 14.1019C11.2689 14.3673 11.2188 14.6468 11.16 14.9348C11.0823 15.1007 11.0163 15.1907 10.8956 15.3235C10.5169 15.7411 10.3686 16.2495 10.3769 16.8068C10.4579 17.8773 10.814 19.1659 11.6342 19.9067C12.3599 20.4873 13.1241 20.8249 14.06 20.9019C14.1286 20.9076 14.1286 20.9076 14.1986 20.9134C14.7844 20.9767 14.7844 20.9767 15.3229 20.8088C15.4111 20.6989 15.4813 20.5877 15.5527 20.4665C15.8298 20.2894 16.1671 20.3103 16.4857 20.3421C16.8291 20.4544 17.0225 20.6809 17.232 20.9641C17.357 21.214 17.3324 21.5017 17.2942 21.7727C17.1507 22.0865 16.9607 22.3282 16.6723 22.519C16.4017 22.6092 16.1465 22.613 15.8637 22.5812C15.5331 22.4159 15.2975 22.189 15.1795 21.8349C14.8716 21.8143 14.5638 21.7938 14.2465 21.7727C14.5653 22.5572 15.0057 23.0948 15.7937 23.4442C16.275 23.6177 16.76 23.6271 17.2665 23.6308C17.484 23.642 17.7001 23.6738 17.9162 23.7008C17.9162 22.223 17.9162 20.7452 17.9162 19.2226C17.7315 19.202 17.5468 19.1815 17.3564 19.1604C17.3333 19.2316 17.3333 19.2316 17.3098 19.3042C17.2238 19.4891 17.1555 19.5535 16.9833 19.6579C16.6643 19.7643 16.2932 19.7956 15.9774 19.6638C15.7296 19.4986 15.5812 19.3239 15.4905 19.036C15.434 18.6218 15.4589 18.2964 15.7092 17.9533C15.9063 17.7417 16.0967 17.6796 16.3768 17.6365C16.7397 17.6849 17.0952 17.8418 17.3564 18.103C17.4934 18.1316 17.4934 18.1316 17.6441 18.1419C17.6949 18.1465 17.7458 18.1512 17.7981 18.156C17.8371 18.159 17.8761 18.1621 17.9162 18.1652C17.9184 17.7502 17.9171 17.3354 17.9136 16.9204C17.9127 16.7794 17.9127 16.6384 17.9134 16.4975C17.9144 16.2941 17.9125 16.0908 17.9101 15.8874C17.9115 15.7938 17.9115 15.7938 17.9128 15.6983C17.9044 15.2835 17.804 15.0472 17.5426 14.7255C17.3086 14.5262 17.0464 14.5289 16.75 14.5227C16.6566 14.5176 16.6566 14.5176 16.5613 14.5124C16.0967 14.4898 15.6298 14.4862 15.1649 14.5C15.0454 14.5029 14.9258 14.4997 14.8063 14.4955C14.6819 14.3711 14.6819 14.3711 14.667 14.2239C14.6672 14.1623 14.6675 14.1007 14.6678 14.0373C14.6678 13.9675 14.6678 13.8978 14.6678 13.826C14.6685 13.7504 14.6691 13.6749 14.6698 13.5971C14.67 13.5199 14.6701 13.4428 14.6703 13.3633C14.6709 13.1582 14.672 12.9531 14.6734 12.748C14.6747 12.5387 14.6752 12.3294 14.6759 12.1201C14.6772 11.7094 14.6793 11.2987 14.6819 10.8881C14.623 10.8698 14.564 10.8515 14.5033 10.8326C14.1509 10.7077 13.9421 10.4095 13.784 10.0795C13.709 9.67966 13.7095 9.37457 13.9057 9.01556C14.105 8.76043 14.396 8.60531 14.6819 8.46234C15.0678 8.42955 15.416 8.4138 15.7393 8.64893C16.0405 8.93804 16.2903 9.21213 16.3027 9.6475C16.2829 10.0164 16.1648 10.3539 15.9259 10.6393C15.8233 10.6803 15.7206 10.7214 15.6149 10.7637C15.6149 11.7078 15.6149 12.652 15.6149 13.6248C16.2271 13.6174 16.2271 13.6174 16.8392 13.6079C17.3588 13.6048 17.7698 13.6094 18.2029 13.9323C18.2468 13.9771 18.2908 14.0218 18.3361 14.0679C18.3806 14.1117 18.4252 14.1555 18.4711 14.2006C18.8056 14.6419 18.8858 15.0566 18.8808 15.601C18.8812 15.6664 18.8816 15.7317 18.882 15.799C18.8829 16.0167 18.8822 16.2344 18.8814 16.4522C18.8817 16.6087 18.8822 16.7653 18.8827 16.9218C18.8837 17.3021 18.8836 17.6824 18.8828 18.0627C18.8823 18.3717 18.8822 18.6807 18.8825 18.9897C18.8825 19.0338 18.8826 19.0778 18.8826 19.1232C18.8827 19.2127 18.8828 19.3022 18.8828 19.3916C18.8835 20.2296 18.8827 21.0675 18.8814 21.9055C18.8803 22.6246 18.8805 23.3436 18.8816 24.0626C18.883 24.8982 18.8835 25.7337 18.8827 26.5692C18.8826 26.6582 18.8826 26.7473 18.8825 26.8363C18.8824 26.9021 18.8824 26.9021 18.8824 26.9691C18.8821 27.2779 18.8825 27.5867 18.8831 27.8955C18.8839 28.3109 18.8833 28.7261 18.8819 29.1415C18.8815 29.2941 18.8816 29.4468 18.8822 29.5994C18.8829 29.8073 18.882 30.0151 18.8808 30.2229C18.8813 30.2838 18.8819 30.3446 18.8825 30.4073C18.8777 30.8126 18.8777 30.8126 18.7364 31.0152C18.5337 31.1451 18.4 31.1401 18.165 31.1023C18.0064 30.9451 17.9249 30.8411 17.8863 30.6194C17.8869 30.5571 17.8874 30.4948 17.888 30.4306C17.888 30.3596 17.888 30.2887 17.888 30.2156C17.8893 30.1396 17.8906 30.0637 17.8919 29.9855C17.8923 29.9072 17.8926 29.8289 17.893 29.7483C17.8941 29.541 17.8964 29.3338 17.8991 29.1265C17.9017 28.9147 17.9028 28.7029 17.9041 28.4911C17.9068 28.0761 17.9111 27.6611 17.9162 27.2461C17.6699 27.2461 17.4236 27.2461 17.1698 27.2461C17.1288 27.3487 17.0877 27.4513 17.0454 27.5571C16.7995 27.8125 16.5182 27.8917 16.1708 27.9069C15.8785 27.8929 15.676 27.851 15.4533 27.6572C15.1913 27.3564 15.0689 27.0395 15.0896 26.6389C15.159 26.29 15.3487 26.0671 15.6188 25.8466C15.9293 25.6941 16.2742 25.7072 16.6101 25.7533C16.9344 25.9043 16.971 25.9714 17.1076 26.3131C17.3745 26.3131 17.6413 26.3131 17.9162 26.3131C17.9162 25.7795 17.9162 25.2458 17.9162 24.696C17.6776 24.7011 17.439 24.7062 17.1932 24.7115C16.5804 24.7159 16.0613 24.6868 15.4905 24.4472C15.4258 24.4201 15.3611 24.393 15.2944 24.3651C14.4167 23.96 13.6878 23.2975 13.3136 22.3946C13.2886 22.2502 13.2669 22.105 13.2514 21.9593C13.1927 21.9419 13.134 21.9245 13.0735 21.9065C11.7555 21.5015 10.6861 20.6621 10.0326 19.4325C9.48504 18.2737 9.11884 16.7476 9.51952 15.4907C9.64075 15.1644 9.76137 14.848 9.9549 14.5577C9.92995 14.3216 9.84472 14.1113 9.76442 13.8891C9.50161 13.0371 9.57759 12.1153 9.99086 11.3215C10.0959 11.1492 10.2071 10.9873 10.3281 10.8259C10.3621 10.7805 10.3961 10.7351 10.4311 10.6883C10.6958 10.3625 11.0145 10.0917 11.3854 9.89289C11.4676 9.89289 11.5497 9.89289 11.6342 9.89289C11.6377 9.83636 11.6377 9.83636 11.6413 9.7787C11.7175 8.80682 12.1133 8.07936 12.816 7.40498C13.3836 6.93825 13.9477 6.66327 14.6819 6.64694C15.0238 6.63594 15.0238 6.63594 15.2767 6.42536C15.3062 6.35865 15.3357 6.29195 15.3661 6.22322C16.5757 4.87543 18.5356 4.55505 20.0365 5.63234Z" fill="#182C37"/>
<path d="M20.9173 32.7039C20.9949 32.7038 21.0725 32.7037 21.1524 32.7036C22.155 32.7035 23.1521 32.7233 24.1515 32.805C24.1996 32.8089 24.2477 32.8129 24.2972 32.8169C26.3566 32.9908 26.3566 32.9908 26.7301 33.307C26.8105 33.4037 26.8105 33.4037 26.8416 33.5553C26.8105 33.7146 26.8105 33.7146 26.6706 33.8507C26.0261 34.2754 25.1991 34.2449 24.45 34.2979C24.2894 34.3093 24.1288 34.3211 23.9682 34.3331C23.6511 34.3565 23.3338 34.3779 23.0164 34.3988C22.9453 34.4037 22.9453 34.4037 22.8727 34.4087C21.3667 34.5109 19.855 34.4644 18.3477 34.4144C18.2683 34.4118 18.1889 34.4092 18.107 34.4065C17.1434 34.3737 16.1839 34.3308 15.2262 34.2161C15.1838 34.2112 15.1414 34.2062 15.0978 34.2012C14.6324 34.1454 14.2051 34.0925 13.8151 33.8157C13.7195 33.6696 13.7234 33.5744 13.749 33.4037C13.9404 33.1316 14.2791 33.0767 14.5896 33.0217C15.5464 32.868 16.5138 32.8247 17.4808 32.7817C17.541 32.779 17.6011 32.7763 17.663 32.7736C18.7478 32.7265 19.8315 32.7047 20.9173 32.7039Z" fill="#742CFF"/>
<path d="M18.3015 6.94765C18.6197 7.08921 18.8086 7.28643 18.9735 7.59149C19.0806 7.91269 19.0974 8.23907 18.975 8.55872C18.8404 8.81087 18.7205 8.99043 18.4759 9.14644C18.4349 9.14644 18.3938 9.14644 18.3515 9.14644C18.353 9.39013 18.3578 9.63363 18.3632 9.87726C18.3636 9.94637 18.3639 10.0155 18.3643 10.0867C18.3625 10.4806 18.3625 10.4806 18.5634 10.7993C18.6166 10.8286 18.6699 10.8578 18.7247 10.888C18.9622 11.2024 19.0138 11.4457 18.9971 11.8389C18.9361 12.2752 18.7251 12.538 18.388 12.8081C18.1125 13.0042 17.8067 12.9709 17.4808 12.9405C17.1628 12.8567 16.9783 12.7142 16.8005 12.439C16.6141 12.1099 16.567 11.8216 16.61 11.4478C16.724 11.0822 16.9185 10.8526 17.232 10.6392C17.2936 10.6392 17.3551 10.6392 17.4186 10.6392C17.4186 10.1671 17.4186 9.69502 17.4186 9.20863C17.3159 9.16758 17.2133 9.12653 17.1076 9.08424C16.7652 8.72595 16.6337 8.43352 16.6447 7.94184C16.701 7.60628 16.8921 7.33321 17.1627 7.13035C17.2786 7.06281 17.2786 7.06281 17.4808 6.96951C17.7323 6.84378 18.0366 6.8694 18.3015 6.94765Z" fill="#182C38"/>
<path d="M23.4518 7.15609C23.7442 7.4145 23.8728 7.69418 23.9105 8.0774C23.9004 8.41147 23.776 8.69357 23.5431 8.93359C23.4165 9.0416 23.2899 9.13409 23.1408 9.20862C23.1203 9.66017 23.0997 10.1117 23.0786 10.577C23.2017 10.618 23.3249 10.6591 23.4518 10.7014C23.7288 10.9343 23.8604 11.1391 23.9124 11.4973C23.9297 12.0399 23.7831 12.3422 23.4166 12.7335C23.1838 12.9491 22.9061 12.9678 22.6024 12.9602C22.2831 12.9171 22.0435 12.7739 21.8152 12.5518C21.5899 12.1846 21.4839 11.8868 21.5545 11.4541C21.625 11.1602 21.7043 10.9932 21.9627 10.8299C22.1019 10.7168 22.1415 10.6573 22.1818 10.4801C22.1963 10.2874 22.2005 10.0976 22.2001 9.90446C22.2013 9.83763 22.2026 9.7708 22.2039 9.70195C22.2069 9.53746 22.2081 9.37313 22.2078 9.20862C22.1701 9.19082 22.1323 9.17302 22.0934 9.15468C21.7702 8.98518 21.6026 8.74022 21.4933 8.40223C21.41 8.07111 21.4427 7.84753 21.5975 7.54872C21.7736 7.25793 21.9479 7.09064 22.2623 6.95395C22.7156 6.84513 23.0586 6.91634 23.4518 7.15609Z" fill="#172B36"/>
<path d="M28.6765 14.1222C28.8858 14.2519 29.0629 14.3976 29.174 14.6198C29.2057 14.9371 29.2361 15.2562 29.0574 15.5333C29.0138 15.5807 28.9702 15.6282 28.9252 15.6771C28.8842 15.6771 28.8431 15.6771 28.8009 15.6771C28.8035 15.7417 28.8061 15.8063 28.8087 15.8728C28.8178 16.115 28.8235 16.3572 28.8282 16.5996C28.8307 16.704 28.8341 16.8083 28.8384 16.9127C28.878 17.8898 28.878 17.8898 28.5657 18.2802C28.4796 18.3676 28.3921 18.4536 28.3033 18.5382C28.1269 18.7486 27.9949 18.9499 27.8718 19.1952C27.6967 19.5236 27.5454 19.7238 27.1837 19.8444C26.862 19.8691 26.5798 19.8497 26.3129 19.6578C26.0778 19.4076 25.918 19.1548 25.9009 18.8064C25.9281 18.4512 26.09 18.2498 26.3557 18.0212C26.6902 17.8508 27.0107 17.8101 27.3742 17.9123C27.4646 17.9451 27.4646 17.9451 27.5569 17.9784C27.8 17.7256 27.838 17.5599 27.8409 17.2126C27.8413 17.1696 27.8417 17.1266 27.8421 17.0823C27.8425 16.9918 27.8423 16.9012 27.8415 16.8107C27.8407 16.6726 27.8428 16.5348 27.8452 16.3968C27.8452 16.3085 27.8451 16.2202 27.8448 16.1319C27.8448 16.0522 27.8449 15.9724 27.8449 15.8902C27.7961 15.6251 27.693 15.5413 27.4947 15.3661C27.4201 15.0519 27.4502 14.7211 27.5997 14.4332C27.9045 14.0376 28.204 13.987 28.6765 14.1222Z" fill="#1C323D"/>
<path d="M12.7073 14.1649C13.1131 14.5062 13.1131 14.5062 13.1487 14.7947C13.1586 15.1452 13.1592 15.3889 12.9405 15.6771C12.8789 15.6977 12.8174 15.7182 12.7539 15.7393C12.7508 15.9994 12.7486 16.2594 12.7471 16.5195C12.7465 16.6078 12.7456 16.6962 12.7445 16.7846C12.743 16.912 12.7423 17.0393 12.7418 17.1667C12.7411 17.2433 12.7405 17.3198 12.7398 17.3987C12.7571 17.6513 12.8144 17.8292 12.9638 18.0329C12.9972 18.056 13.0305 18.0791 13.0649 18.1028C13.148 18.0828 13.2309 18.0619 13.3137 18.0406C13.678 18.0119 14.0086 17.9916 14.3477 18.1378C14.5844 18.3807 14.6675 18.6088 14.7093 18.9425C14.6701 19.2559 14.5764 19.4835 14.3278 19.6782C14.0029 19.865 13.6818 19.9015 13.3137 19.8444C12.9368 19.6966 12.8149 19.3895 12.63 19.0514C12.4552 18.7685 12.241 18.5444 12.01 18.3067C11.7797 18.0495 11.8128 17.7835 11.8149 17.4568C11.815 17.406 11.8151 17.3552 11.8151 17.3028C11.8155 17.1406 11.8163 16.9784 11.8171 16.8161C11.8174 16.7061 11.8177 16.5961 11.8179 16.4861C11.8186 16.2164 11.8197 15.9468 11.821 15.6771C11.7629 15.6685 11.7629 15.6685 11.7036 15.6596C11.5722 15.6149 11.5722 15.6149 11.4594 15.3972C11.3654 15.1075 11.3587 14.8497 11.4478 14.5576C11.7289 14.0675 12.2021 13.9027 12.7073 14.1649Z" fill="#1B303B"/>
<path d="M15.6032 15.1564C15.8843 15.3658 16.0636 15.593 16.1746 15.9261C16.2077 16.4227 16.0716 16.8023 15.7701 17.2004C15.5131 17.4601 15.1806 17.493 14.8296 17.5082C14.475 17.497 14.28 17.397 14.0329 17.1392C13.718 16.7815 13.7274 16.4724 13.7317 16.0126C13.7615 15.6479 13.9223 15.5007 14.1765 15.2575C14.6148 14.9419 15.1164 14.9098 15.6032 15.1564Z" fill="#1B303B"/>
<path d="M26.076 15.0494C26.4452 15.2679 26.7584 15.5621 26.8727 15.9882C26.9106 16.3895 26.8379 16.7256 26.5899 17.0451C26.2983 17.356 26.0637 17.4629 25.6365 17.5043C25.3054 17.4941 25.0291 17.3677 24.7864 17.1435C24.4856 16.802 24.4141 16.4802 24.4237 16.037C24.4678 15.7089 24.6232 15.4845 24.869 15.2688C25.2316 14.9986 25.6422 14.8699 26.076 15.0494Z" fill="#182D39"/>
<path d="M28.4012 11.1428C28.7013 11.3289 28.9497 11.5358 29.0496 11.8831C29.095 12.2062 29.1018 12.5134 28.9486 12.8083C28.7251 13.1024 28.4836 13.3396 28.1167 13.4381C27.7456 13.4801 27.4868 13.3956 27.1837 13.1893C26.9124 12.9454 26.7713 12.6711 26.7347 12.3081C26.7183 11.8999 26.8124 11.6519 27.0826 11.3389C27.4506 11.0235 27.9525 10.9515 28.4012 11.1428Z" fill="#172B36"/>
<path d="M13.2748 11.2029C13.508 11.3724 13.6653 11.5419 13.7491 11.821C13.8123 12.2618 13.7662 12.6388 13.5003 13.0028C13.1437 13.3416 12.8583 13.4055 12.3751 13.3949C12.1236 13.3686 12.0019 13.3037 11.8209 13.1272C11.5428 12.7494 11.3994 12.4247 11.4477 11.9454C11.5811 11.5533 11.8663 11.32 12.2136 11.1135C12.5877 11.0265 12.9331 11.0088 13.2748 11.2029Z" fill="#182C37"/>
<path d="M25.8154 9.27076C25.9359 9.34462 25.9359 9.34462 26.002 9.45735C26.0374 9.68976 26.0175 9.80205 25.9048 10.0094C25.7532 10.1415 25.7532 10.1415 25.5355 10.1765C25.3178 10.1415 25.3178 10.1415 25.1662 10.0443C25.0305 9.83258 25.0294 9.70401 25.069 9.45735C25.2983 9.17944 25.4785 9.17717 25.8154 9.27076Z" fill="#E4F1F6"/>
<path d="M15.2416 9.27079C15.3971 9.37186 15.3971 9.37186 15.4904 9.51958C15.5285 9.74795 15.5207 9.84849 15.3894 10.0405C15.195 10.1735 15.0997 10.184 14.8685 10.1416C14.6567 9.98502 14.5684 9.89873 14.5264 9.6362C14.5575 9.45738 14.5575 9.45738 14.6197 9.34076C14.82 9.22807 15.0212 9.2313 15.2416 9.27079Z" fill="#E9F4F9"/>
<path d="M15.2418 15.8637C15.3662 15.9881 15.3662 15.9881 15.3895 16.198C15.3662 16.4235 15.3662 16.4235 15.2651 16.5751C15.0728 16.7016 14.9704 16.7099 14.7442 16.6722C14.5521 16.5408 14.5035 16.4662 14.4604 16.2369C14.4954 16.0503 14.4954 16.0503 14.6237 15.8987C14.8603 15.7728 14.9863 15.7962 15.2418 15.8637Z" fill="#E7F4F8"/>
<path d="M25.8157 15.8016C25.9634 15.9027 25.9634 15.9027 26.0645 16.0504C26.0951 16.2603 26.0853 16.3796 25.9945 16.5713C25.8779 16.6723 25.8779 16.6723 25.6991 16.7073C25.4401 16.6607 25.3508 16.5692 25.1937 16.3614C25.1587 16.202 25.1587 16.202 25.1937 16.0504C25.3698 15.7999 25.5156 15.7516 25.8157 15.8016Z" fill="#E8F2F7"/>
<path d="M17.8853 7.62256C18.0949 7.66448 18.1662 7.72884 18.2896 7.90245C18.3209 8.15794 18.3099 8.24508 18.1652 8.46223C17.9591 8.52443 17.9591 8.52443 17.7298 8.52443C17.5432 8.39226 17.5432 8.39226 17.4188 8.21344C17.4137 8.00578 17.4651 7.92339 17.5898 7.75862C17.7298 7.65366 17.7298 7.65366 17.8853 7.62256Z" fill="#E5EFF4"/>
<path d="M22.8068 11.3312C23.0168 11.3856 23.0168 11.3856 23.1412 11.51C23.1684 11.7199 23.1684 11.7199 23.1412 11.9454C23.0051 12.1009 23.0051 12.1009 22.8302 12.1942C22.6501 12.1899 22.5561 12.1562 22.4064 12.0581C22.2947 11.8875 22.3041 11.7715 22.3326 11.5722C22.477 11.3469 22.5366 11.3219 22.8068 11.3312Z" fill="#E6F1F6"/>
<path d="M17.9788 11.3233C18.1265 11.3894 18.1265 11.3894 18.2276 11.5099C18.2544 11.7241 18.267 11.8734 18.1615 12.0658C17.9714 12.17 17.8177 12.1546 17.6056 12.1318C17.4851 12.0658 17.4851 12.0658 17.419 11.9452C17.3796 11.5777 17.3796 11.5777 17.489 11.3894C17.6617 11.2915 17.7836 11.2994 17.9788 11.3233Z" fill="#EFF6FA"/>
<path d="M22.892 7.71592C23.0125 7.78201 23.0125 7.78201 23.0786 7.90252C23.118 8.27008 23.118 8.27008 23.0086 8.45841C22.8339 8.55745 22.7161 8.55268 22.5188 8.52449C22.3711 8.42342 22.3711 8.42342 22.27 8.2757C22.2419 8.07839 22.2371 7.96068 22.3361 7.78589C22.5255 7.67595 22.6783 7.69302 22.892 7.71592Z" fill="#E8F3F7"/>
<path d="M12.816 11.8209C12.9288 11.8948 12.9288 11.8948 13.0026 12.0075C13.0368 12.237 13.0308 12.3401 12.8977 12.5323C12.7538 12.6295 12.7538 12.6295 12.5944 12.6256C12.3524 12.5325 12.3524 12.5325 12.2562 12.3807C12.229 12.163 12.229 12.163 12.2562 11.9453C12.4316 11.7375 12.5665 11.7314 12.816 11.8209Z" fill="#E3EEF4"/>
<path d="M27.93 11.8286C28.2135 11.9113 28.2135 11.9113 28.3032 12.0696C28.2954 12.2912 28.2954 12.2912 28.241 12.505C28.0394 12.6394 27.9775 12.6694 27.7434 12.6294C27.5957 12.4933 27.5957 12.4933 27.4946 12.3184C27.4989 12.1375 27.5346 12.0426 27.6307 11.8908C27.7434 11.8208 27.7434 11.8208 27.93 11.8286Z" fill="#E0ECF4"/>
<path d="M24.4162 20.9717C24.5846 21.0306 24.6552 21.0683 24.7583 21.2127C24.8166 21.3643 24.8166 21.3643 24.8205 21.5237C24.6996 21.6958 24.6222 21.7611 24.4162 21.8074C24.2607 21.7725 24.2607 21.7725 24.113 21.6364C24.0119 21.4615 24.0119 21.4615 24.0158 21.2982C24.1045 21.0735 24.1607 20.9589 24.4162 20.9717Z" fill="#E3EDF2"/>
<path d="M16.3615 21.0262C16.4743 21.0962 16.4743 21.0962 16.5481 21.2128C16.5729 21.4107 16.5825 21.5318 16.4743 21.7026C16.3164 21.8006 16.2332 21.8082 16.0505 21.7726C15.9028 21.6326 15.9028 21.6326 15.8018 21.4616C15.8065 21.3011 15.8492 21.2334 15.9417 21.1039C16.0916 20.9968 16.1812 20.9991 16.3615 21.0262Z" fill="#E9F2F5"/>
<path d="M16.1672 26.4219C16.3616 26.4374 16.3616 26.4374 16.4782 26.5113C16.5735 26.6648 16.5748 26.7574 16.5482 26.935C16.4743 27.0477 16.4743 27.0477 16.3616 27.1216C16.1846 27.1481 16.0902 27.144 15.934 27.0555C15.8228 26.864 15.8798 26.7084 15.9262 26.4996C15.9884 26.4374 15.9884 26.4374 16.1672 26.4219Z" fill="#E6F0F5"/>
<path d="M24.3499 26.418C24.5093 26.4374 24.5093 26.4374 24.6259 26.5074C24.6959 26.624 24.6959 26.624 24.6842 26.8145C24.6337 26.9972 24.6337 26.9972 24.5093 27.1216C24.3577 27.1449 24.3577 27.1449 24.1983 27.1216C24.0817 27.0166 24.0817 27.0166 24.0117 26.8728C24.0298 26.619 24.0741 26.4533 24.3499 26.418Z" fill="#E3EFF3"/>
<path d="M16.3612 18.3518C16.5663 18.3723 16.6487 18.3905 16.7966 18.5384C16.7761 18.7435 16.7579 18.8259 16.61 18.9738C16.4545 18.9621 16.4545 18.9621 16.299 18.9116C16.1746 18.725 16.1746 18.725 16.1902 18.5967C16.2368 18.4762 16.2368 18.4762 16.3612 18.3518Z" fill="#DFECF0"/>
<path d="M24.202 18.309C24.3225 18.3518 24.3225 18.3518 24.4469 18.414C24.4611 18.5884 24.4681 18.6915 24.3731 18.8416C24.2603 18.9116 24.2603 18.9116 24.0971 18.896C23.9493 18.8494 23.9493 18.8494 23.8872 18.7872C23.8716 18.6045 23.8716 18.6045 23.8872 18.414C24.0737 18.2896 24.0737 18.2896 24.202 18.309Z" fill="#E5F0F3"/>
<path d="M12.1322 14.6199C12.3576 14.6432 12.3576 14.6432 12.5675 14.6821C12.5753 14.8609 12.5753 14.8609 12.5675 15.0553C12.4431 15.1797 12.4431 15.1797 12.2876 15.1952C12.1322 15.1797 12.1322 15.1797 12.0078 15.0553C11.9922 14.8998 11.9922 14.8998 12.0078 14.7443C12.0488 14.7032 12.0899 14.6622 12.1322 14.6199Z" fill="#EEF4F7"/>
<path d="M28.4081 14.577C28.4793 14.5982 28.4793 14.5982 28.552 14.6198C28.5947 14.7597 28.5947 14.7597 28.6142 14.9308C28.5248 15.0746 28.5248 15.0746 28.4276 15.1796C28.1244 15.1251 28.1244 15.1251 28.0544 15.0552C28.0358 14.8789 28.0322 14.7791 28.1282 14.6276C28.241 14.5576 28.241 14.5576 28.4081 14.577Z" fill="#E9EFF2"/>
<path d="M13.6947 18.655C13.7538 18.6576 13.8128 18.6602 13.8736 18.6628C13.9163 18.8066 13.9163 18.8066 13.9358 18.9738C13.8658 19.0904 13.8658 19.0904 13.7492 19.1604C13.582 19.1409 13.582 19.1409 13.4382 19.0982C13.3993 18.9505 13.3993 18.9505 13.376 18.7872C13.5004 18.6628 13.5004 18.6628 13.6947 18.655Z" fill="#E2ECF1"/>
<path d="M26.9701 18.5967C27.0452 18.5986 27.0452 18.5986 27.1217 18.6006C27.1455 18.7036 27.1661 18.8073 27.1839 18.9116C27.1217 18.9738 27.1217 18.9738 26.9623 18.9776C26.8873 18.9757 26.8873 18.9757 26.8107 18.9738C26.787 18.8707 26.7663 18.767 26.7485 18.6628C26.8107 18.6006 26.8107 18.6006 26.9701 18.5967Z" fill="#D3DFE5"/>
<path d="M11.1989 14.8064C11.24 14.8064 11.281 14.8064 11.3233 14.8064C11.3156 14.9425 11.3156 14.9425 11.2611 15.1174C11.1714 15.1972 11.0811 15.2768 10.9854 15.3494C10.8468 15.4617 10.7451 15.5968 10.6392 15.7394C10.6469 15.4836 10.7423 15.3731 10.9191 15.2029C10.9582 15.1675 10.9973 15.132 11.0376 15.0955C11.152 14.992 11.152 14.992 11.1989 14.8064Z" fill="#E8F0F6"/>
<path d="M13.8734 33.2791C13.9144 33.2791 13.9555 33.2791 13.9978 33.2791C14.0183 33.4843 14.0388 33.6896 14.06 33.901C13.8112 33.7766 13.8112 33.7766 13.749 33.7144C13.7373 33.5628 13.7373 33.5628 13.749 33.4034C13.79 33.3624 13.8311 33.3213 13.8734 33.2791Z" fill="#458BA9"/>
<path d="M12.0078 14.1223C11.9307 14.3536 11.826 14.413 11.6346 14.5577C11.5936 14.5987 11.5525 14.6398 11.5103 14.6821C11.5289 14.4589 11.5581 14.3847 11.7241 14.2273C11.8834 14.1223 11.8834 14.1223 12.0078 14.1223Z" fill="#19292F"/>
<path d="M29.2362 14.4333C29.3518 14.6283 29.3731 14.7676 29.3606 14.9931C29.299 15.0239 29.299 15.0239 29.2362 15.0553C29.1952 14.8706 29.1541 14.6859 29.1118 14.4955C29.1529 14.475 29.1939 14.4545 29.2362 14.4333Z" fill="#E8EEF5"/>
<path d="M9.45771 15.6772C9.59855 15.9589 9.58771 16.062 9.5199 16.3614C9.45833 16.3922 9.45833 16.3922 9.39551 16.4236C9.41603 16.1773 9.43656 15.931 9.45771 15.6772Z" fill="#2E3D43"/>
<path d="M14.3087 8.64893C14.3498 8.66945 14.3908 8.68998 14.4331 8.71112C14.31 8.83428 14.1868 8.95743 14.0599 9.08431C14.0189 9.06379 13.9778 9.04326 13.9355 9.02211C14.0599 8.89772 14.1843 8.77332 14.3087 8.64893Z" fill="#203339"/>
</g>
</g>
</g>
<defs>
<clipPath id="clip0_52_2425">
<rect width="40" height="39.62" fill="white" transform="translate(0 0.189941)"/>
</clipPath>
<clipPath id="clip1_52_2425">
<rect width="40" height="39.62" fill="white" transform="translate(0 0.189941)"/>
</clipPath>
<clipPath id="clip2_52_2425">
<rect width="39.9932" height="39.62" fill="white" transform="translate(0.00341797 0.189941)"/>
</clipPath>
</defs>
</svg>
